Coordinates
version=1
nRows=14
nColumns=40
inDegrees=yes

Units are S.I. units (second, meters, Newtons, ...)
Angles are in degrees.

endheader
time	pelvis_tilt	pelvis_list	pelvis_rotation	pelvis_tx	pelvis_ty	pelvis_tz	hip_flexion_r	hip_adduction_r	hip_rotation_r	knee_angle_r	knee_angle_r_beta	ankle_angle_r	subtalar_angle_r	mtp_angle_r	hip_flexion_l	hip_adduction_l	hip_rotation_l	knee_angle_l	knee_angle_l_beta	ankle_angle_l	subtalar_angle_l	mtp_angle_l	lumbar_extension	lumbar_bending	lumbar_rotation	arm_flex_r	arm_add_r	arm_rot_r	elbow_flex_r	pro_sup_r	wrist_flex_r	wrist_dev_r	arm_flex_l	arm_add_l	arm_rot_l	elbow_flex_l	pro_sup_l	wrist_flex_l	wrist_dev_l
     31.03750000	     -6.00237981	     -4.59990010	      2.33337643	      0.71689862	      0.91883758	      0.45971402	      3.13710358	      0.15895876	    -12.34744245	     24.80477524	     24.80477524	     18.05231940	     -2.99806889	     -3.45693473	     28.23978592	     -6.40642574	     -1.85829751	     26.39397062	     26.39397062	      6.85555183	    -14.60977268	      3.65330851	     -8.44449355	      3.48559685	      3.72539588	     26.38211541	    -15.04739886	      2.66775239	     91.11087612	     44.69097164	      0.00000000	      0.00000000	     -5.50424396	     -8.16950963	     -1.96156767	     29.54815140	     45.17032734	      0.00000000	      0.00000000
     31.05028571	     -5.98664790	     -4.50990262	      2.08561992	      0.71786120	      0.92001275	      0.45747273	      4.08743855	     -0.46643844	    -12.08714267	     27.38331494	     27.38331494	     17.07435285	     -3.77405747	     -4.96834993	     27.51499318	     -6.20709604	     -1.93021052	     26.19595007	     26.19595007	      7.35254041	    -14.86147165	      3.98901003	     -8.34553986	      3.35359759	      3.95852240	     25.08645808	    -15.00890535	      3.18882782	     89.46576864	     44.72814580	      0.00000000	      0.00000000	     -4.68674437	     -8.21144466	     -2.42735032	     30.66191357	     45.26005756	      0.00000000	      0.00000000
     31.06307143	     -5.84186401	     -4.41539365	      1.86974514	      0.71895136	      0.92129491	      0.45523532	      4.75958412	     -1.03306471	    -11.77700795	     29.43360312	     29.43360312	     13.79108157	     -5.81126967	    -12.25628341	     26.69678019	     -5.99281447	     -1.97217023	     26.12148087	     26.12148087	      8.21891338	    -15.00340467	      5.18244149	     -8.35013447	      3.19590091	      2.96717256	     24.88560274	    -13.90336593	      4.44758478	     85.75002657	     44.83915922	      0.00000000	      0.00000000	     -5.32130535	     -8.27440373	     -4.75243449	     34.35445162	     45.61274816	      0.00000000	      0.00000000
     31.07585714	     -5.73907955	     -4.28348130	      1.59806650	      0.71993705	      0.92241484	      0.45299771	      5.98416905	     -1.79748545	    -11.54336177	     32.61361215	     32.61361215	     12.57570187	     -6.62606817	    -13.21645461	     25.84652234	     -5.81703861	     -2.33820418	     25.87898047	     25.87898047	      8.59793006	    -14.95185169	      5.06412206	     -8.34781221	      3.07359157	      3.30499937	     23.34811368	    -14.03553777	      4.86726421	     84.40397724	     44.86633477	      0.00000000	      0.00000000	     -4.22128540	     -8.39182072	     -5.03237456	     35.26511342	     45.66957265	      0.00000000	      0.00000000
     31.08864286	     -5.63508635	     -4.22343658	      1.40336537	      0.72084436	      0.92338359	      0.45070784	      7.16083398	     -2.41254507	    -11.21167005	     35.40384543	     35.40384543	      9.19147729	     -9.10263532	    -19.10629047	     25.03057085	     -5.64455054	     -2.46049114	     25.65283696	     25.65283696	      8.92505714	    -15.06135603	      4.86720284	     -8.33285911	      3.00558975	      2.75910306	     22.68061427	    -13.27573864	      5.50065150	     80.83333233	     44.98292160	      0.00000000	      0.00000000	     -4.48174907	     -8.55169674	     -6.51333133	     38.97848528	     45.88039566	      0.00000000	      0.00000000
     31.10142857	     -5.52702069	     -4.10299993	      1.17451896	      0.72165598	      0.92421365	      0.44838897	      8.66014417	     -3.16970290	    -10.88651748	     38.83444632	     38.83444632	      6.75889422	    -10.82471820	    -21.37243941	     24.21867620	     -5.43525669	     -2.71242659	     25.44252779	     25.44252779	      9.28113630	    -15.07655660	      4.68798194	     -8.32543956	      2.91152785	      2.62009458	     21.58386853	    -12.96398536	      5.84532170	     77.93920533	     45.07757538	      0.00000000	      0.00000000	     -4.12988558	     -8.78986622	     -7.24721926	     41.75929395	     46.00147425	      0.00000000	      0.00000000
     31.11421429	     -5.43289060	     -3.98259515	      0.95069891	      0.72234840	      0.92481781	      0.44605740	     10.35331833	     -3.93320069	    -10.53801253	     42.48803831	     42.48803831	      4.28760144	    -12.47899812	    -22.58842605	     23.46139005	     -5.22068080	     -2.96365240	     25.28708012	     25.28708012	      9.66500097	    -15.08381827	      4.50651177	     -8.31292347	      2.83676799	      2.54909651	     20.45515016	    -12.62268243	      5.75741577	     74.84787556	     45.18511909	      0.00000000	      0.00000000	     -3.81770498	     -9.13747304	     -7.67153949	     44.90493408	     46.08944937	      0.00000000	      0.00000000
     31.12700000	     -5.41139719	     -3.86988376	      0.73094429	      0.72291557	      0.92514608	      0.44365210	     12.28170805	     -4.69167236	    -10.20248812	     46.30208286	     46.30208286	      1.87853369	    -13.99160050	    -22.59267650	     22.80983195	     -5.00412951	     -3.25451882	     25.14886035	     25.14886035	     10.07427929	    -15.11616755	      4.35238967	     -8.19876617	      2.86223024	      3.05506488	     18.81190485	    -12.94786073	      5.67804260	     72.32048515	     45.26583865	      0.00000000	      0.00000000	     -2.82854439	     -9.33000961	     -7.93437218	     47.24171791	     46.15261500	      0.00000000	      0.00000000
     31.13978571	     -5.21111094	     -3.70211812	      0.52569496	      0.72337350	      0.92551331	      0.44130276	     14.08944321	     -5.48605143	     -9.84048169	     50.06570084	     50.06570084	     -0.68714220	    -15.39733606	    -22.10817034	     22.05135143	     -4.74518403	     -3.49064564	     25.17463839	     25.17463839	     10.54050215	    -15.04597197	      4.09512047	     -8.39204249	      2.72288487	      2.60950421	     18.06246263	    -12.16924564	      4.92613802	     68.45593572	     45.41608167	      0.00000000	      0.00000000	     -2.99864263	     -9.94133502	     -8.18489203	     51.79928190	     46.23894134	      0.00000000	      0.00000000
     31.15257143	     -5.14988284	     -3.44880102	      0.31726477	      0.72366613	      0.92559801	      0.43886916	     16.11753331	     -6.41668248	     -9.57156243	     53.75441075	     53.75441075	     -3.19545336	    -16.54495682	    -21.24047846	     21.42123703	     -4.37632314	     -3.81207192	     25.12147762	     25.12147762	     10.96553892	    -15.02910339	      3.91362955	     -8.42406347	      2.60125468	      2.85328061	     16.33827704	    -12.54882852	      5.00758324	     66.62084603	     45.46626374	      0.00000000	      0.00000000	     -1.70647116	    -10.26594924	     -8.48180943	     53.54381371	     46.30095754	      0.00000000	      0.00000000
     31.16535714	     -4.98771905	     -3.51433115	      0.14155534	      0.72393853	      0.92579465	      0.43665732	     18.02636714	     -6.82962603	     -9.27258494	     57.22340000	     57.22340000	     -4.88521044	    -17.33152654	    -17.58934039	     20.76438793	     -4.34304703	     -3.92292738	     25.18777991	     25.18777991	     11.44750901	    -15.04289761	      3.67769954	     -8.55178419	      2.77469874	      3.22017676	     15.23351112	    -12.55340285	      3.99344879	     62.20385974	     45.64321693	      0.00000000	      0.00000000	     -1.48246503	    -10.62218921	     -8.76088692	     58.85163213	     46.41114138	      0.00000000	      0.00000000
     31.17814286	     -4.90027758	     -3.30100182	     -0.07377367	      0.72403390	      0.92573045	      0.43453863	     20.18296505	     -7.50675232	     -8.85939044	     60.75253065	     60.75253065	     -5.48637850	    -17.42751712	    -11.72388628	     20.13739382	     -4.04698028	     -4.27475511	     25.15550213	     25.15550213	     11.91221892	    -14.91273159	      3.40839674	     -8.62738260	      2.65753469	      2.26793890	     15.04854133	    -11.68212431	      3.17171701	     57.62319454	     45.80830020	      0.00000000	      0.00000000	     -2.00688980	    -11.38199353	     -9.64528941	     63.88717983	     46.59530288	      0.00000000	      0.00000000
     31.19092857	     -4.76719527	     -3.24043966	     -0.28194579	      0.72414735	      0.92585349	      0.43256479	     22.10769397	     -7.93803380	     -8.56013062	     63.64508279	     63.64508279	     -6.12194942	    -17.81834991	     -6.75373654	     19.46478104	     -3.90950186	     -4.55262185	     25.13085920	     25.13085920	     12.37925689	    -14.80965048	      3.16441668	     -8.79524525	      2.71250908	      2.23964700	     14.06887890	    -11.71649445	      2.51129406	     53.99059488	     45.93147590	      0.00000000	      0.00000000	     -1.59628584	    -11.80356502	    -10.46084057	     68.12848899	     46.76894157	      0.00000000	      0.00000000
     31.20371429	     -4.62424663	     -3.20245122	     -0.48895977	      0.72422885	      0.92606817	      0.43073759	     23.91359480	     -8.28767753	     -8.33197724	     66.06336082	     66.06336082	     -6.36380180	    -18.12552640	     -2.09227043	     18.75833875	     -3.79804628	     -4.82671487	     25.04698973	     25.04698973	     12.80793647	    -14.70322436	      2.92731810	     -8.98842840	      2.79971584	      2.24694241	     13.09338586	    -11.84139291	      1.69228614	     50.44368330	     46.05728960	      0.00000000	      0.00000000	     -1.04419767	    -12.19975873	    -11.27708275	     72.25411114	     46.94576034	      0.00000000	      0.00000000
